HIERARCHY
ROOT Hips
{
	OFFSET 0.00000 0.00000 0.00000
	CHANNELS 6 Xposition Yposition Zposition Zrotation Yrotation Xrotation 
	JOINT LHipJoint
	{
		OFFSET 0 0 0
		CHANNELS 3 Zrotation Yrotation Xrotation
		JOINT LeftHip
		{
			OFFSET 1.61328 -1.70571 0.84375
			CHANNELS 3 Zrotation Yrotation Xrotation
			JOINT LeftKnee
			{
				OFFSET 2.32400 -6.38513 0.00000
				CHANNELS 3 Zrotation Yrotation Xrotation
				JOINT LeftAnkle
				{
					OFFSET 2.58843 -7.11166 0.00000
					CHANNELS 3 Zrotation Yrotation Xrotation
					JOINT LeftToe
					{
						OFFSET 0.17200 -0.47257 2.47970
						CHANNELS 3 Zrotation Yrotation Xrotation
						End Site
						{
							OFFSET 0.00000 -0.00000 1.26912
						}
					}
				}
			}
		}
	}
	JOINT RHipJoint
	{
		OFFSET 0 0 0
		CHANNELS 3 Zrotation Yrotation Xrotation
		JOINT RightHip
		{
			OFFSET -1.49930 -1.70570 0.84375
			CHANNELS 3 Zrotation Yrotation Xrotation
			JOINT RightKnee
			{
				OFFSET -2.30458 -6.33178 0.00000
				CHANNELS 3 Zrotation Yrotation Xrotation
				JOINT RightAnkle
				{
					OFFSET -2.62261 -7.20556 0.00000
					CHANNELS 3 Zrotation Yrotation Xrotation
					JOINT RightToe
					{
						OFFSET -0.18709 -0.51403 2.51340
						CHANNELS 3 Zrotation Yrotation Xrotation
						End Site
						{
							OFFSET -0.00000 -0.00000 1.28858
						}
					}
				}
			}
		}
	}
	JOINT lowerback
	{
		OFFSET 0 0 0
		CHANNELS 3 Zrotation Yrotation Xrotation
		JOINT Chest
		{
			OFFSET -0.03798 2.19274 -0.19881
			CHANNELS 3 Zrotation Yrotation Xrotation
			JOINT Chest2
			{
				OFFSET -0.00024 2.19460 0.05248
				CHANNELS 3 Zrotation Yrotation Xrotation
				JOINT lowerneck
				{
					OFFSET 0 0 0
					CHANNELS 3 Zrotation Yrotation Xrotation
					JOINT Neck
					{
						OFFSET -0.00746 1.82323 0.17286
						CHANNELS 3 Zrotation Yrotation Xrotation
						JOINT Head
						{
							OFFSET 0.11826 1.82121 -0.27841
							CHANNELS 3 Zrotation Yrotation Xrotation
							End Site
							{
								OFFSET 0.03496 1.85543 -0.11495
							}
						}
					}
				}
				JOINT LeftCollar
				{
					OFFSET 0 0 0
					CHANNELS 3 Zrotation Yrotation Xrotation
					JOINT LeftShoulder
					{
						OFFSET 3.71926 0.78840 0.25473
CHANNELS 3 Zrotation Xrotation Yrotation
						JOINT LeftElbow
						{
OFFSET 0 -5.375870 0.000000
CHANNELS 3 Zrotation Xrotation Yrotation
							JOINT LeftWrist
							{
OFFSET 0 -3.359770 0.000000
CHANNELS 3 Zrotation Xrotation Yrotation
								JOINT lhand
								{
									OFFSET 0 0 0
CHANNELS 3 Zrotation Xrotation Yrotation
									JOINT LFingers
									{
OFFSET 0 -0.561860 0.000000
CHANNELS 3 Zrotation Xrotation Yrotation
										End Site
										{
OFFSET 0 -0.452990 0.000000
										}
									}
								}
								JOINT LThumb
								{
OFFSET 0 0.000000 0.000000
CHANNELS 3 Zrotation Xrotation Yrotation
									End Site
									{
OFFSET 0 -0.459900 0.459900
									}
								}
							}
						}
					}
				}
				JOINT RightCollar
				{
					OFFSET 0 0 0
					CHANNELS 3 Zrotation Yrotation Xrotation
					JOINT RightShoulder
					{
						OFFSET -3.65136 0.56074 0.01624
CHANNELS 3 Zrotation Xrotation Yrotation
						JOINT RightElbow
						{
OFFSET 0 -5.228190 0.000000
CHANNELS 3 Zrotation Xrotation Yrotation
							JOINT RightWrist
							{
OFFSET 0 -3.407640 0.000000
CHANNELS 3 Zrotation Xrotation Yrotation
								JOINT rhand
								{
									OFFSET 0 0 0
CHANNELS 3 Zrotation Xrotation Yrotation
									JOINT RFingers
									{
OFFSET 0 -0.583250 0.000000
CHANNELS 3 Zrotation Xrotation Yrotation
										End Site
										{
OFFSET 0 -0.470240 0.000000
										}
									}
								}
								JOINT RThumb
								{
OFFSET 0 0.000000 0.000000
CHANNELS 3 Zrotation Xrotation Yrotation
									End Site
									{
OFFSET 0 -0.477420 0.477420
									}
								}
							}
						}
					}
				}
			}
		}
	}
}
MOTION
Frames: 9
Frame Time: 0.008333333333333333
47.474200 15.980300 -8.295600 143.649000 -86.270600 -137.470000 0.000000 0.000000 0.000000 -28.853800 12.276600 -6.854800 1.692000 8.192600 23.300700 2.351100 0.224800 -29.130200 0.451300 -4.309700 -11.949600 0.000000 0.000000 0.000000 10.882900 20.939900 -43.641600 -12.879100 -18.738100 68.749700 -1.013500 1.969400 -18.469200 -0.024700 -1.014000 2.787200 -5.570600 -2.857100 2.956700 -1.392000 -3.981300 7.609000 1.513500 -2.376000 6.569000 3.268600 3.263000 -4.278800 2.722500 3.729800 9.340100 0.496700 2.023200 3.808300 0.000000 -0.000000 0.000000 11.666200 -12.306600 -50.241300 60.421200 -56.421100 34.691700 25.557700 -11.502300 -20.178700 0.000000 0.000000 0.000000 -7.125000 0.000000 0.000000 -2.978600 52.120000 0.522500 0.000000 -0.000000 0.000000 -12.033400 4.056200 44.013900 -17.750800 -27.837000 -4.432300 -27.377000 -10.383900 -4.156900 0.000000 0.000000 0.000000 7.125000 0.000000 -0.000000 -0.554400 25.300800 -0.264300
47.274023 15.935235 -8.266135 139.506851 -85.948146 -133.054718 0.000000 0.000000 0.000000 -29.377906 12.988577 -5.977345 1.544673 7.844819 22.243840 2.374089 0.184876 -29.259427 0.530644 -4.666991 -12.961374 0.000000 0.000000 0.000000 9.933559 22.008091 -45.289058 -12.633727 -18.645830 67.983903 -1.065448 1.671873 -19.023359 -0.030331 -1.122189 3.085149 -5.971935 -3.111972 2.750740 -1.545712 -4.298764 7.641170 1.543859 -2.556878 6.770002 3.271479 3.523906 -3.897517 2.744172 4.101418 9.068355 0.507280 2.200257 3.638362 0.000000 0.000000 0.000000 13.180862 -14.786064 -50.996870 71.599783 -58.663591 44.138094 26.295405 -11.346499 -18.957840 0.000000 0.000000 0.000000 -7.125000 0.000000 0.000000 -1.950873 50.932339 0.291016 0.000000 0.000000 0.000000 -14.340642 6.164376 44.866511 -16.568972 -26.285432 -3.894923 -24.631296 -8.674315 -3.368931 0.000000 0.000000 0.000000 7.125000 0.000000 0.000000 1.507481 26.273639 0.684109
47.050553 15.887710 -8.243373 133.872516 -85.837025 -127.338913 0.000000 0.000000 0.000000 -29.689092 13.646913 -4.671531 1.389424 7.457336 21.077822 2.374740 0.250864 -29.285048 0.626401 -5.063832 -14.090786 0.000000 0.000000 0.000000 9.207430 22.644679 -46.553637 -12.369549 -18.542468 67.155427 -1.115897 1.592609 -19.501807 -0.042074 -1.323762 3.640035 -6.272530 -3.340570 2.694021 -1.707156 -4.594486 7.773157 1.513584 -2.726272 6.984422 3.365372 3.694406 -3.760958 2.813314 4.328757 8.855559 0.516698 2.313797 3.538767 0.000000 0.000000 0.000000 14.913594 -17.568915 -51.779115 82.143525 -59.748936 53.202701 27.369600 -12.257457 -17.084537 0.000000 0.000000 0.000000 -7.125000 0.000000 0.000000 -0.519126 49.068552 0.053651 0.000000 0.000000 0.000000 -16.398727 8.442781 45.125666 -15.672432 -25.074087 -3.506249 -22.315618 -7.351862 -3.115692 0.000000 0.000000 0.000000 7.125000 0.000000 0.000000 3.271318 26.609247 1.461551
46.817388 15.833544 -8.222672 127.895504 -85.750817 -121.298035 0.000000 0.000000 0.000000 -29.941709 14.182640 -3.255849 1.242587 7.067962 19.916807 2.364386 0.386367 -29.265605 0.718070 -5.415127 -15.096565 0.000000 0.000000 0.000000 8.518450 23.100548 -47.724405 -12.113469 -18.438129 66.347925 -1.154468 1.604884 -19.842267 -0.049620 -1.437456 3.953441 -6.554592 -3.606480 2.652458 -1.841979 -4.941531 7.894193 1.497346 -2.920276 7.185430 3.359085 3.860754 -3.571193 2.903891 4.561064 8.600780 0.547762 2.426425 3.411314 0.000000 0.000000 0.000000 16.681158 -20.321647 -52.000442 92.195463 -59.978247 61.901025 27.966520 -12.890977 -15.802752 0.000000 0.000000 0.000000 -7.125000 0.000000 0.000000 0.261599 47.747328 -0.017561 0.000000 0.000000 0.000000 -18.470082 10.763656 45.315155 -14.997617 -24.142828 -3.224971 -20.187385 -6.312036 -3.015415 0.000000 0.000000 0.000000 7.125000 0.000000 0.000000 4.896147 26.760280 2.174596
46.568093 15.772769 -8.205255 121.668681 -85.689930 -115.015699 0.000000 0.000000 0.000000 -30.107468 14.563989 -1.718274 1.109772 6.692348 18.807272 2.349808 0.524543 -29.221190 0.787808 -5.666027 -15.818362 0.000000 0.000000 0.000000 7.914214 23.351713 -48.776143 -11.899273 -18.347746 65.669233 -1.190876 1.672264 -20.143678 -0.052653 -1.481059 4.073606 -6.795698 -3.888051 2.592777 -1.954346 -5.308561 8.028197 1.475719 -3.123259 7.413051 3.347645 4.015258 -3.449266 2.987149 4.777744 8.325714 0.577075 2.531458 3.290337 0.000000 0.000000 0.000000 18.459271 -22.944262 -51.783786 100.714716 -59.551470 69.264569 28.058835 -13.368866 -14.839263 0.000000 0.000000 0.000000 -7.125000 0.000000 0.000000 0.477687 46.690633 -0.019997 0.000000 0.000000 0.000000 -20.468355 13.068202 45.303700 -14.623712 -23.619260 -3.073602 -18.456037 -5.671648 -2.861524 0.000000 0.000000 0.000000 7.125000 0.000000 0.000000 6.222456 26.950473 2.741306
46.303056 15.705806 -8.191988 115.761549 -85.627062 -109.044766 0.000000 0.000000 0.000000 -30.185537 14.836774 -0.101237 0.990613 6.334361 17.757830 2.337010 0.648365 -29.183053 0.855272 -5.897575 -16.487534 0.000000 0.000000 0.000000 7.395929 23.475440 -49.724682 -11.762592 -18.288519 65.234364 -1.242983 1.604021 -20.610034 -0.055223 -1.516505 4.171279 -7.005660 -4.159932 2.505771 -2.046318 -5.660249 8.152786 1.454732 -3.316704 7.645828 3.392717 4.167268 -3.372049 3.042104 4.988006 8.054346 0.587989 2.634353 3.182058 0.000000 0.000000 0.000000 20.187822 -25.268826 -51.281244 107.512381 -58.803747 75.104812 27.671013 -13.890591 -13.891511 0.000000 0.000000 0.000000 -7.125000 0.000000 0.000000 0.225203 45.582474 -0.003599 0.000000 0.000000 0.000000 -22.406485 15.367727 45.279780 -14.588709 -23.569979 -3.059581 -17.102782 -5.480043 -2.515800 0.000000 0.000000 0.000000 7.125000 0.000000 0.000000 7.273520 27.327013 3.145994
46.022619 15.634006 -8.183506 110.260424 -85.570230 -103.480619 0.000000 0.000000 0.000000 -30.158663 14.989758 1.652120 0.879223 5.977492 16.719212 2.328346 0.735853 -29.159231 0.931893 -6.149159 -17.217862 0.000000 0.000000 0.000000 6.967345 23.503257 -50.544301 -11.742854 -18.279816 65.171249 -1.322049 1.256682 -21.366476 -0.065995 -1.657362 4.559742 -7.181847 -4.423232 2.426728 -2.113364 -6.000699 8.218448 1.444567 -3.499044 7.808902 3.477481 4.326356 -3.202154 3.077763 5.209229 7.800624 0.583759 2.741924 3.064601 0.000000 0.000000 0.000000 21.775609 -27.077778 -50.677177 112.555395 -57.986022 79.401339 27.007556 -14.608101 -12.825611 0.000000 0.000000 0.000000 -7.125000 0.000000 0.000000 -0.270814 44.313818 -0.004962 0.000000 0.000000 0.000000 -24.338805 17.727986 45.548770 -14.944958 -24.069240 -3.203510 -16.053414 -5.708465 -2.040615 0.000000 0.000000 0.000000 7.125000 0.000000 0.000000 8.107123 27.825673 3.416881
45.726202 15.559101 -8.179955 104.799805 -85.543341 -97.978984 0.000000 0.000000 0.000000 -29.996147 14.985730 3.647338 0.768210 5.596217 15.617384 2.324571 0.644823 -29.104413 0.980019 -6.301639 -17.662249 0.000000 0.000000 0.000000 6.638125 23.432337 -51.192961 -11.871303 -18.335692 65.580190 -1.424101 0.630128 -22.377787 -0.088830 -1.921096 5.287697 -7.312352 -4.693590 2.384744 -2.143610 -6.354489 8.210054 1.454840 -3.680660 7.870396 3.555377 4.494330 -2.903427 3.107425 5.447353 7.575499 0.575788 2.856026 2.933441 0.000000 0.000000 0.000000 23.092628 -28.241752 -50.117901 115.833122 -57.320350 82.170684 26.229874 -15.391514 -11.783544 0.000000 0.000000 0.000000 -7.125000 0.000000 0.000000 -0.867899 43.070269 -0.042146 0.000000 0.000000 0.000000 -26.312252 20.086618 46.356274 -15.672712 -25.074177 -3.506439 -15.174467 -6.320636 -1.592692 0.000000 0.000000 0.000000 7.125000 0.000000 0.000000 8.815524 28.287713 3.624246
45.413338 15.482646 -8.181098 98.910559 -85.550342 -92.077429 0.000000 0.000000 0.000000 -29.671482 14.886582 5.839470 0.661738 5.202418 14.486791 2.311228 0.337789 -28.918185 1.007542 -6.386855 -17.911008 0.000000 0.000000 0.000000 6.422730 23.234121 -51.630122 -12.153074 -18.454516 66.473104 -1.531898 -0.164094 -23.478856 -0.112549 -2.162665 5.955469 -7.400656 -4.959884 2.387949 -2.129680 -6.708708 8.169403 1.494822 -3.858688 7.871338 3.633271 4.648384 -2.622423 3.126155 5.665565 7.393490 0.564363 2.960681 2.821443 0.000000 0.000000 0.000000 24.025103 -28.828175 -49.728392 117.405390 -56.962494 83.491704 25.355994 -16.147255 -11.003771 0.000000 0.000000 0.000000 -7.125000 0.000000 0.000000 -1.571757 42.118243 -0.112137 0.000000 0.000000 0.000000 -28.257760 22.246106 47.678342 -16.637713 -26.377176 -3.925292 -14.345625 -7.332547 -1.196604 0.000000 0.000000 0.000000 7.125000 0.000000 0.000000 9.486991 28.690670 3.815357
